<?xml version="1.0" standalone="no"?>
<!DOCTYPE svg PUBLIC "-//W3C//DTD SVG 20010904//EN"
 "http://www.w3.org/TR/2001/REC-SVG-20010904/DTD/svg10.dtd">
<svg version="1.0" xmlns="http://www.w3.org/2000/svg"
 width="306.000000pt" height="306.000000pt" viewBox="0 0 306.000000 306.000000"
 preserveAspectRatio="xMidYMid meet">
<metadata>
Created by potrace 1.11, written by Peter Selinger 2001-2013
</metadata>
<g transform="translate(0.000000,306.000000) scale(0.100000,-0.100000)"
fill="#000000" stroke="none">
<path d="M10 1530 l0 -1530 1520 0 1520 0 0 1530 0 1530 -1520 0 -1520 0 0
-1530z m2040 898 l510 -293 -1 -600 0 -600 -182 -104 c-100 -58 -315 -181
-477 -275 -162 -93 -315 -181 -340 -194 l-45 -24 -205 120 c-113 65 -344 200
-515 299 l-310 179 -3 600 -2 599 142 83 143 82 5 -597 5 -597 240 -139 c132
-76 297 -172 367 -213 70 -41 132 -74 137 -74 5 0 81 41 168 92 87 50 253 146
368 212 l210 121 3 430 2 430 -192 112 c-106 61 -275 158 -375 216 l-182 105
-215 -124 c-118 -68 -220 -124 -226 -124 -6 0 -10 55 -10 160 l0 161 48 29
c181 113 390 229 405 225 10 -2 247 -135 527 -297z m-305 -507 l220 -128 0
-258 0 -258 -222 -127 -222 -128 -220 127 -220 126 -1 261 0 260 218 126 c119
70 219 126 222 127 3 0 104 -57 225 -128z"/>
</g>
</svg>
