<?xml version="1.0" encoding="utf-8"?>
<!-- Generator: Adobe Illustrator 17.0.0, SVG Export Plug-In . SVG Version: 6.00 Build 0)  -->
<!DOCTYPE svg PUBLIC "-//W3C//DTD SVG 1.1//EN" "http://www.w3.org/Graphics/SVG/1.1/DTD/svg11.dtd">
<svg version="1.1" xmlns="http://www.w3.org/2000/svg" xmlns:xlink="http://www.w3.org/1999/xlink" x="0px" y="0px" width="1000px"
	 height="1000px" viewBox="300 300 700 700" enable-background="new 300 300 700 700" xml:space="preserve">
<g id="Logo_x5F_HNegro">
</g>
<g id="Loho_x5F_HNega">
</g>
<g id="Logo_x5F_HPos">
</g>
<g id="Logo_x5F_SNegro">
</g>
<g id="Logo_x5F_SNega">
</g>
<g id="Logo_x5F_SPos">
</g>
<g id="Logo_x5F_Pos">
</g>
<g id="Logo_x5F_Negativo">
</g>
<g id="Logo_x5F_Negro">
</g>
<g id="Isotipo_x5F_Pos_x5F_NavBar">
</g>
<g id="Isotipo_x5F_Negativo">
	<rect x="0" display="none" fill="#96231E" width="400" height="400"/>
	<path fill="#FFFFFF" d="M302.665,302.665v394.671h394.671V302.665H302.665z M631.625,575.796l-0.25,0.144l-131.338,75.828
		l-0.25-0.145l-131.323-75.801l0.016-151.917l0.25-0.145l36.749-21.217l0,151.909l94.383,54.479l0.18,0.104l94.395-54.499
		l0.18-0.103l0.011-109.186l-94.383-54.479l-0.18-0.104L443.59,423.27v-42.73l-0.333,0.192l56.811-32.8l0.25,0.144l131.323,75.801
		L631.625,575.796z M443.59,532.448l0.007-65.185l0.107-0.062l56.355-32.536l0.107,0.062l56.348,32.525l-0.007,65.185l-0.107,0.062
		l-56.355,32.536l-0.107-0.062L443.59,532.448z"/>
</g>
<g id="Isotipo_x5F_Positivo_1_">
</g>
<g id="Isotipo_x5F_Negro">
</g>
</svg>
