<svg width="300" height="142" xmlns="http://www.w3.org/2000/svg"><g fill-rule="nonzero" fill="none"><path fill="#D52A33" d="M119.586 58.152l-6.414 17.2H101.27l3.214-8.593-12.58-8.607z"/><path fill="#005F9E" d="M100.772 76.703H87.27l10.883 7.242z"/><path fill="#BC0911" d="M91.903 58.152l12.58 8.607-3.214 8.593-15.986-.014z"/><path d="M68.028 62.345l-.083-2.883a.966.966 0 0 0-.814-.924l-4.552-.731a.993.993 0 0 1-.772-.662c-.27-.81-.621-1.592-1.048-2.331a1.007 1.007 0 0 1 0-1.02l2.482-3.863a.966.966 0 0 0-.151-1.214l-2.097-1.972a.966.966 0 0 0-1.227-.083l-3.738 2.759a.98.98 0 0 1-1.007.069c-.77-.387-1.573-.7-2.4-.938a.952.952 0 0 1-.704-.718l-1.02-4.524a.924.924 0 0 0-.938-.73l-2.925.096a.924.924 0 0 0-.896.786l-.731 4.566a.98.98 0 0 1-.662.772 13.2 13.2 0 0 0-2.331 1.048 1.007 1.007 0 0 1-1.02 0l-3.918-2.524a.924.924 0 0 0-1.173.138L34.29 49.6a.938.938 0 0 0-.07 1.186l2.76 3.752a.98.98 0 0 1 .082 1.02c-.374.767-.68 1.566-.91 2.387a.993.993 0 0 1-.718.717l-4.51 1.007a.938.938 0 0 0-.745.952l.083 2.91c.015.453.352.83.8.897l4.455.744c.36.062.656.317.773.662.272.81.623 1.59 1.048 2.332a.98.98 0 0 1 0 1.006l-2.428 3.904a.938.938 0 0 0 .152 1.2l2.11 2a.952.952 0 0 0 1.214 0l3.738-2.759a.952.952 0 0 1 1.007 0c.77.374 1.574.674 2.4.897.35.096.62.377.703.73l1.021 4.511a.952.952 0 0 0 .952.745l2.896-.097a.938.938 0 0 0 .91-.8l.732-4.565a.98.98 0 0 1 .676-.759c.807-.278 1.587-.629 2.33-1.048a.952.952 0 0 1 1.008 0l3.903 2.483a.966.966 0 0 0 1.2-.152l1.986-2.083a.938.938 0 0 0 .083-1.2l-2.759-3.751a.98.98 0 0 1-.082-1.007c.4-.737.724-1.514.965-2.318a.993.993 0 0 1 .731-.717l4.455-1.062a.966.966 0 0 0 .787-.98zm-17.642 7.2a8.166 8.166 0 1 1-2.612-16.12 8.166 8.166 0 0 1 2.612 16.12zM74.345 103.531l.814-1.945a.676.676 0 0 0-.262-.855l-2.76-1.876a.717.717 0 0 1-.344-.648c.055-.62.055-1.243 0-1.862a.745.745 0 0 1 .317-.676l2.759-1.835a.703.703 0 0 0 .262-.855l-.786-1.958a.717.717 0 0 0-.8-.414l-3.228.703a.772.772 0 0 1-.703-.262 9.145 9.145 0 0 0-1.31-1.379.731.731 0 0 1-.249-.703l.704-3.31a.703.703 0 0 0-.414-.773l-1.973-.828a.676.676 0 0 0-.827.248l-1.876 2.76a.731.731 0 0 1-.676.316 9.476 9.476 0 0 0-1.876 0 .703.703 0 0 1-.662-.317l-1.848-2.841a.69.69 0 0 0-.828-.249l-1.986.8a.69.69 0 0 0-.414.773l.662 3.31a.703.703 0 0 1-.262.704 9.903 9.903 0 0 0-1.379 1.379.69.69 0 0 1-.69.248l-3.31-.69a.69.69 0 0 0-.786.414l-.814 1.945a.69.69 0 0 0 .248.855l2.759 1.876c.221.15.339.411.303.676-.055.62-.055 1.243 0 1.862a.772.772 0 0 1-.317.676l-2.759 1.834a.703.703 0 0 0-.275.856l.813 1.958a.676.676 0 0 0 .773.414l3.31-.662c.261-.05.528.051.69.262.414.504.876.966 1.38 1.38.204.17.3.44.247.703l-.69 3.296a.69.69 0 0 0 .4.787l1.96.827c.307.121.657.012.84-.262l1.877-2.759a.731.731 0 0 1 .675-.303 9.476 9.476 0 0 0 1.876 0 .703.703 0 0 1 .662.317l1.849 2.759a.703.703 0 0 0 .841.262l1.959-.8a.69.69 0 0 0 .427-.786l-.662-3.31a.676.676 0 0 1 .262-.69c.501-.392.963-.83 1.38-1.31a.703.703 0 0 1 .69-.263l3.296.704a.717.717 0 0 0 .73-.483zm-13.917-.58a5.959 5.959 0 1 1 6.73-2.758 5.972 5.972 0 0 1-6.73 2.759z" fill="#9D9DA6"/><path d="M137.959 67.145a75.507 75.507 0 0 1-3.642-1.062c-.551-.18-.634-1.104-.634-1.104a31.559 31.559 0 0 0-1.517-6.151 1.062 1.062 0 0 1 .193-.98c.813-.814 2-1.986 2.758-2.607.359-.303.386-.993-.138-1.958l-1.296-2.373c-.428-.8-.91-1.158-1.38-1.186a.703.703 0 0 0-.44 0c-.939.248-2.553.662-3.67.897h-.18a1.834 1.834 0 0 1-.744-.593 30.883 30.883 0 0 0-4.4-4.594 1.09 1.09 0 0 1-.317-.951c.29-1.117.73-2.759 1.062-3.642.165-.441-.152-1.048-1.09-1.627l-2.303-1.38a2.62 2.62 0 0 0-1.214-.44 1.02 1.02 0 0 0-.938.178c-.69.69-1.876 1.849-2.759 2.607a.91.91 0 0 1-.772.152l-.235-.055a30.538 30.538 0 0 0-2.924-1.076 30.966 30.966 0 0 0-3.338-.814 1.131 1.131 0 0 1-.8-.648c-.29-1.117-.703-2.759-.882-3.683-.083-.469-.662-.827-1.766-.855l-2.759-.069c-1.103 0-1.696.331-1.806.772-.262.952-.704 2.538-1.062 3.628-.194.566-1.104.648-1.104.648-2.107.29-4.178.799-6.18 1.518a1.076 1.076 0 0 1-.992-.194c-.814-.813-1.973-2-2.607-2.758-.304-.359-.98-.4-1.959.138l-2.372 1.283c-.952.524-1.283 1.13-1.173 1.586.249.938.662 2.538.897 3.669.124.579-.635 1.117-.635 1.117a32.234 32.234 0 0 0-4.593 4.386c-.24.266-.598.39-.951.331-1.104-.29-2.76-.73-3.628-1.062-.455-.165-1.062.152-1.628 1.09l-1.379 2.303c-.565.938-.565 1.628-.234 1.959.69.69 1.848 1.876 2.62 2.758.386.428 0 1.283 0 1.283A32.18 32.18 0 0 0 71.38 63.6c-.076.363-.33.664-.676.8-1.103.29-2.758.703-3.669.883-.468.083-.84.662-.868 1.765 0 .676 0 2-.07 2.69 0 1.09.332 1.696.773 1.807.952.262 2.552.703 3.641 1.062.552.18.649 1.103.649 1.103.323 2.1.859 4.161 1.6 6.152.105.343.032.715-.193.993-.8.814-1.987 1.973-2.76 2.607-.358.304-.385.98.139 1.959l1.296 2.372c.525.952 1.131 1.283 1.573 1.173a69.123 69.123 0 0 1 3.683-.897c.565-.124 1.103.634 1.103.634a31.09 31.09 0 0 0 4.372 4.552c.27.256.404.624.359.993-.303 1.104-.745 2.759-1.076 3.628-.165.441.152 1.048 1.09 1.627l2.303 1.38c.938.565 1.628.551 1.959.234.69-.69 1.876-1.848 2.759-2.62.44-.387 1.282 0 1.282 0a32.469 32.469 0 0 0 4.69 1.475l1.186.262h.193c.36.074.66.322.8.663.304 1.117.717 2.758.883 3.682.069.373.455.676 1.145.8.267.063.54.1.814.11l2.758.07c1.09 0 1.683-.331 1.807-.787.248-.938.69-2.538 1.062-3.627.18-.552 1.104-.648 1.104-.648a30.497 30.497 0 0 0 6.165-1.518c.156-.022.314-.022.47 0 .115.041.222.102.316.18.814.813 1.973 2 2.607 2.758.137.156.331.25.538.262a2.18 2.18 0 0 0 1.614-.345l2.234-1.324c.952-.524 1.297-1.13 1.173-1.572-.248-.952-.662-2.552-.897-3.683-.11-.565.635-1.103.635-1.103a31.572 31.572 0 0 0 4.593-4.4c.235-.238.563-.359.896-.331 1.104.29 2.621.717 3.49 1.034h.193c.455.166 1.062-.152 1.642-1.09l1.379-2.317c.565-.924.552-1.627.22-1.945-.689-.69-1.848-1.875-2.606-2.758-.386-.428 0-1.27 0-1.27a31.876 31.876 0 0 0 1.696-5.985c.08-.359.334-.653.676-.787 1.104-.303 2.759-.717 3.683-.882.469-.083.827-.662.855-1.766v-2.758c.097-1.035-.262-1.628-.703-1.752zM102.44 94.179c-13.712 0-24.827-11.115-24.827-24.827 0-13.712 11.115-24.828 24.827-24.828 13.712 0 24.828 11.116 24.828 24.828a24.828 24.828 0 0 1-24.828 24.827z" fill="#9D9DA6"/><path fill="#363545" d="M156.731 66.4V48.552h-6.497v-3.986h17.821v3.986h-6.524V66.4zM166.552 58.552a7.724 7.724 0 0 1 7.903-8.193c3.242 0 7.228 1.613 7.228 8.758v.704h-10.414c.234 2.607 1.683 3.6 3.655 3.6a7.186 7.186 0 0 0 4.662-1.89l1.835 2.841a10.18 10.18 0 0 1-6.897 2.359c-4.041 0-7.972-2.097-7.972-8.18zm10.882-1.531c-.234-2.207-1.24-3.27-3.006-3.27-1.476 0-2.759.966-3.104 3.27h6.11zM184.069 66.4V44.566h4.759v11.986l4.896-5.876h5.104l-5.131 5.876 5.42 9.848h-4.896l-3.476-6.4-1.917 2.152V66.4zM200.883 66.4V44.566h4.717V66.4zM207.834 62.345c0-3.628 3.076-5.628 9.973-6.193v-.386c0-1.145-.58-1.89-2.124-1.89a8.276 8.276 0 0 0-5.159 1.958l-2.014-2.758a11.034 11.034 0 0 1 7.849-2.759c4.317 0 6.082 2.124 6.082 6.166v6.041a10.869 10.869 0 0 0 .442 3.835h-4.717a7.448 7.448 0 0 1-.36-2.29 6.98 6.98 0 0 1-5.516 2.538 4.207 4.207 0 0 1-4.456-4.262zm9.973-.676v-2.883c-3.738.386-5.338 1.38-5.338 2.759 0 .993.703 1.503 1.738 1.503a4.828 4.828 0 0 0 3.6-1.338v-.041zM224.703 47.559a3.986 3.986 0 1 1 7.973.055 3.986 3.986 0 0 1-7.973-.055zm7.435 0a3.448 3.448 0 1 0-3.448 3.49 3.476 3.476 0 0 0 3.448-3.49zm-4.897-2.29h1.545c1.007 0 1.573.441 1.573 1.241a1.103 1.103 0 0 1-.966 1.2l1.09 2h-.662l-1.049-1.917h-.91v1.917h-.62V45.27zm1.518 2.014c.62 0 .993-.193.993-.759 0-.565-.373-.703-1.007-.703h-.883v1.462h.897zM151.38 83.297c0-6.897 3.861-11.338 9.213-11.338 5.352 0 9.2 4.496 9.2 11.338 0 6.84-3.862 11.324-9.2 11.324-5.338 0-9.214-4.483-9.214-11.324zm16.317 0c0-5.931-2.98-9.407-7.104-9.407-4.124 0-7.117 3.476-7.117 9.407 0 5.93 2.924 9.393 7.062 9.393s7.103-3.462 7.103-9.393h.056zM173.448 78.662h2.042v2.22a6.897 6.897 0 0 1 5.2-2.51c3.558 0 6.4 2.621 6.4 8.056 0 5.434-2.87 8.055-6.58 8.055a6.897 6.897 0 0 1-5.02-2.4v8.027h-2.042V78.662zm11.6 7.793c0-4.303-2.124-6.345-4.717-6.345a6.607 6.607 0 0 0-4.841 2.566v7.558a6.662 6.662 0 0 0 4.855 2.538c2.758 0 4.745-1.917 4.745-6.317h-.042zM189.766 86.428c0-5.518 3.544-8.056 6.813-8.056 3.628 0 6.345 2.759 6.345 8.083v.386h-11.13c0 3.835 2.22 5.987 4.91 5.987A5.241 5.241 0 0 0 201.53 90l1.269.993a6.897 6.897 0 0 1-6.22 3.545c-3.628 0-6.814-2.8-6.814-8.11zm11.186-1.214c-.207-2.952-1.628-5.131-4.4-5.131-2.249 0-4.345 1.614-4.718 5.13h9.118zM206.262 78.662h2.041v2.455a8.51 8.51 0 0 1 5.931-2.758 4.138 4.138 0 0 1 4.621 4.675v11.173h-2.027V83.352c0-2.18-.98-3.242-3.104-3.242a7.834 7.834 0 0 0-5.42 2.759v11.338h-2.042V78.662zM235.917 72.29h2.276l7.724 21.917h-2.124l-2.33-6.717h-8.856l-2.331 6.717h-2.028l7.67-21.917zm4.842 13.338l-3.752-10.87-3.752 10.856 7.504.014zM249.2 72.372h7.255c4.745 0 7.642 1.959 7.642 5.973 0 4.386-3.242 6.193-7.849 6.193h-4.951v9.655H249.2v-21.82zm7.2 10.304c3.6 0 5.6-1.117 5.6-4.276s-1.972-4.138-5.628-4.138h-5.075v8.372l5.103.042zM267.614 72.372h2.096v21.835h-2.096z"/></g></svg>