<svg xmlns="http://www.w3.org/2000/svg" viewBox="0 0 1149.27 168.29"><defs><style>.cls-1{fill:#363545;}.cls-2{fill:#009ad9;}.cls-3{fill:#ffbe00;}.cls-4{fill:#005f9e;}.cls-5{fill:none;stroke:#005f9e;stroke-miterlimit:10;stroke-width:10.2px;}.cls-6{fill:#fff;}</style></defs><title>Tekla-Partners-Program-Member-Wide</title><g id="Logos_Color_RGB" data-name="Logos Color RGB"><circle class="cls-1" cx="1030.7" cy="147.23" r="15.55"/><circle class="cls-2" cx="1133.72" cy="92.51" r="15.55"/><circle class="cls-3" cx="1108.8" cy="137.76" r="15.55"/><circle class="cls-4" cx="1081.2" cy="28.38" r="22.87"/><line class="cls-5" x1="1056.56" y1="92.51" x2="1107.61" y2="92.51"/><polyline class="cls-5" points="1030.7 122.22 1030.7 92.51 1058.33 56.48"/><polygon class="cls-4" points="1065.21 87.41 994.47 87.41 991.74 97.61 1060.98 97.61 1085.69 122.32 1092.91 115.11 1065.21 87.41"/><path class="cls-1" d="M164.92,125.2V66.55H143.49V55.64H198.1V66.55H176.67V125.2Z"/><path class="cls-1" d="M193.07,100.29c0-19,13.44-25.94,23.78-25.94,11.19,0,21.9,6.67,21.9,27v2.73H204.63c.47,9,6,13,13.35,13,6.49,0,10.25-2.16,14-5.83l6.11,6c-5.17,5.73-12,9-21,9C204.63,126.23,193.07,118.62,193.07,100.29Zm35.06-4.89c-.66-7.61-4.42-11.65-11.37-11.65-5.64,0-10.81,3.19-11.94,11.65Z"/><path class="cls-1" d="M247,125.2V55.64h11.56V97.09l18.89-21.8h12.69L273.91,93.52l17.67,31.68H279.46l-12.88-23.13-8,8.75V125.2Z"/><path class="cls-1" d="M297.93,125.2V55.64h11.65V125.2Z"/><path class="cls-1" d="M317.41,113.17c0-10.81,9.21-18,32.53-20.68V91c0-5-2.64-7.14-8.18-7.14-7,0-12.6,3.38-16.83,6.77l-5.64-7.24a35.76,35.76,0,0,1,24.07-9c13.34,0,17.95,6.39,17.95,18V113c0,6,.37,9.68,1.41,12.22H351.06a18,18,0,0,1-1.12-6.39c-5.08,5.17-11,7.14-18.43,7.14C323.43,126,317.41,121.44,317.41,113.17Zm32.53-1.88v-11c-13.82,1.88-21.15,5.26-21.15,10.71,0,4,2.72,6,6.95,6A20,20,0,0,0,349.94,111.29Z"/><path class="cls-1" d="M368.53,117.38a7.87,7.87,0,1,1,7.88,7.92A7.88,7.88,0,0,1,368.53,117.38Zm14.68,0a6.8,6.8,0,1,0-6.8,6.9A6.84,6.84,0,0,0,383.21,117.38Zm-9.72-4.52h3.06c2,0,3.09.89,3.09,2.45a2.18,2.18,0,0,1-1.9,2.38l2.14,3.94h-1.29l-2.07-3.77h-1.81v3.77h-1.22Zm3,4c1.23,0,2-.38,2-1.5s-.74-1.39-2-1.39h-1.74v2.89Z"/><g id="Expanded_Logo" data-name="Expanded Logo"><polygon class="cls-4" points="28.24 46.34 76.03 73.93 68.68 101.34 103.51 101.34 118.24 46.34 28.24 46.34"/><polygon class="cls-4" points="64.38 78.75 16.9 51.34 3.51 101.34 58.33 101.34 64.38 78.75"/><polygon class="cls-4" points="10.83 111.34 56.14 111.34 50.17 134.05 10.83 111.34"/></g><polygon class="cls-4" points="954.77 134.05 415.37 134.05 438.81 46.55 978.21 46.55 954.77 134.05"/><path class="cls-6" d="M477.4,70h6.92c7,0,11,2.86,11,10.71,0,8.69-4.42,11.13-11.23,11.13h-3.38V108.5H477.4Zm7,18.93c5.4,0,7.54-2.39,7.54-8.11,0-5.51-2.08-7.8-7.6-7.8h-3.69V89Z"/><path class="cls-6" d="M497.75,102.05c0-4.88,3.75-9.46,12.22-11.75V88.07c0-2.81-1-4.53-3.38-4.53-2.55,0-4.83,2.13-6.19,3.8l-2.08-2c2.29-2.86,5.31-4.63,8.58-4.63,4.53,0,6.19,2.55,6.19,7.44v13.57a25.82,25.82,0,0,0,.57,6.76h-3.22a12,12,0,0,1-.47-3.38c-1.87,2.29-3.9,3.64-6.91,3.64C499.57,108.76,497.75,106.11,497.75,102.05Zm12.22.37V93.06c-6.86,1.82-9.15,5.51-9.15,8.73,0,3,1.35,4.11,3.33,4.11C506.38,105.9,508.46,104.19,510,102.42Z"/><path class="cls-6" d="M518.05,81.15h3.17v4.47h.11c1.35-2.7,3.74-4.89,7-4.89h.57l-.26,3.12h-.73c-2.91,0-5.51,2.6-6.71,5.52V108.5h-3.17Z"/><path class="cls-6" d="M534.37,102.83V84H531V81.15h3.33V71.27h3.17v9.88h5V84h-5v18.2c0,2.7.67,3.79,3.07,3.79a5.33,5.33,0,0,0,2-.36v2.81a10.78,10.78,0,0,1-2.49.31C536.24,108.71,534.37,107.41,534.37,102.83Z"/><path class="cls-6" d="M546,81.15h3.17v3.48c1.46-1.71,4.27-3.9,7.18-3.9,3.64,0,5.3,2,5.3,7v20.8h-3.17V88.27c0-3-.73-4.57-3.07-4.57-2.08,0-4.68,2-6.24,3.69V108.5H546Z"/><path class="cls-6" d="M565.54,94.83c0-9.68,3.38-14.1,8.48-14.1,5.77,0,7.85,6.4,7.85,13.94v.78H568.72c0,6.76,1.76,10.61,5.35,10.61,2.86,0,4.16-1.93,5-5.25l2.7.72c-1.3,5-4,7.39-7.9,7.39C568.77,108.92,565.54,104.29,565.54,94.83Zm13.21-2c-.15-5.15-1.51-9.26-4.78-9.26-3.07,0-4.84,2.81-5.25,9.26Z"/><path class="cls-6" d="M585.85,81.15H589v4.47h.1c1.35-2.7,3.74-4.89,7-4.89h.57l-.26,3.12h-.73c-2.91,0-5.51,2.6-6.7,5.52V108.5h-3.18Z"/><path class="cls-6" d="M597.81,102.57l2.81-1.14c1.09,2.91,2.76,4.84,5.46,4.84,3.07,0,4.47-1.67,4.47-4,0-6.24-11.44-6.86-11.44-15.23,0-4,3.33-6.45,6.92-6.45,4,0,6.19,2.34,7.49,6.19l-2.86.93c-.78-2.49-2.29-4.31-4.63-4.31a3.48,3.48,0,0,0-3.8,3.53c0,6.24,11.5,7,11.5,15.29,0,3.9-2.86,6.81-7.6,6.81C602,109.07,599.43,106.58,597.81,102.57Z"/><path class="cls-6" d="M627.14,70h6.92c7,0,11,2.86,11,10.71,0,8.69-4.42,11.13-11.23,11.13h-3.38V108.5h-3.28Zm7,18.93c5.41,0,7.54-2.39,7.54-8.11,0-5.51-2.08-7.8-7.59-7.8h-3.69V89Z"/><path class="cls-6" d="M648.52,81.15h3.17v4.47h.1c1.36-2.7,3.75-4.89,7-4.89h.58l-.26,3.12h-.73c-2.91,0-5.51,2.6-6.71,5.52V108.5h-3.17Z"/><path class="cls-6" d="M660.8,94.83c0-9.36,3.17-14.1,8.63-14.1S678,85.47,678,94.83s-3.18,14.09-8.53,14.09S660.8,104.13,660.8,94.83Zm13.93-.06c0-6.29-1.3-11.18-5.3-11.18-3.85,0-5.41,4.48-5.41,11.18,0,6.35,1.3,11.34,5.41,11.34C673.22,106.11,674.73,101.64,674.73,94.77Z"/><path class="cls-6" d="M698.77,80.94v3.43a7.48,7.48,0,0,0-3.33.73,13,13,0,0,1,1.1,5.46c0,6.19-3.23,9.73-7.75,9.73a7.38,7.38,0,0,1-2.92-.58,3.22,3.22,0,0,0-1.3,2.29c0,1.15.52,1.67,2.45,2l4.31.73c4.48.78,6.71,2.75,6.71,6.76,0,4.62-3.79,7.49-9.62,7.49-5.67,0-8.58-2.61-8.58-6.77a7,7,0,0,1,3.8-6.29,3.54,3.54,0,0,1-1.93-3.38,5.48,5.48,0,0,1,2.34-4c-2-1.77-3-4.63-3-8,0-6,3.17-9.83,7.75-9.83a6.77,6.77,0,0,1,5.61,2.71A9.53,9.53,0,0,1,698.77,80.94ZM683,111.78c0,2.81,1.67,4.57,5.72,4.57s6.35-1.87,6.35-4.62c0-2.29-1-3.75-4.68-4.32l-4.37-.78A5.73,5.73,0,0,0,683,111.78Zm10.45-21.22c0-4.52-1.45-7.07-4.62-7.07-3,0-4.58,2.65-4.58,7.07s1.61,7,4.58,7S693.41,94.93,693.41,90.56Z"/><path class="cls-6" d="M702,81.15h3.18v4.47h.1c1.35-2.7,3.74-4.89,7-4.89h.57l-.26,3.12h-.73c-2.91,0-5.51,2.6-6.7,5.52V108.5H702Z"/><path class="cls-6" d="M714.71,102.05c0-4.88,3.74-9.46,12.22-11.75V88.07c0-2.81-1-4.53-3.38-4.53-2.55,0-4.84,2.13-6.19,3.8l-2.08-2c2.29-2.86,5.3-4.63,8.58-4.63,4.52,0,6.19,2.55,6.19,7.44v13.57a25.39,25.39,0,0,0,.57,6.76H727.4a12,12,0,0,1-.47-3.38c-1.87,2.29-3.9,3.64-6.92,3.64C716.53,108.76,714.71,106.11,714.71,102.05Zm12.22.37V93.06c-6.87,1.82-9.15,5.51-9.15,8.73,0,3,1.35,4.11,3.32,4.11C723.34,105.9,725.42,104.19,726.93,102.42Z"/><path class="cls-6" d="M735,81.15h3.17v3.48c1.56-1.76,4-3.9,6.86-3.9s4.42,1.46,5,4c1.71-2,4.31-4,7.07-4,3.59,0,5.25,2,5.25,7V108.5h-3.22V88.27c0-3-.63-4.57-3-4.57-2,0-3.95,1.56-5.93,3.69V108.5h-3.17V88.27c0-3-.57-4.68-3-4.68-2.08,0-4,1.72-5.93,3.8V108.5H735Z"/><path class="cls-6" d="M776.24,70h7l6.14,29.75h.15L795.59,70h7V108.5h-5.15V78.91h-.11c-.36,3.23-1.3,7-2.08,10.72l-4,18.87H787l-4-19.29c-.78-3.43-1.71-7.75-2-10.24h-.15V108.5h-4.58Z"/><path class="cls-6" d="M806.06,94.72c0-9.88,4-14.19,9.42-14.19,6.34,0,8.79,6.08,8.79,14.24V96.7H811.32c0,4.89,1.45,7.69,4.36,7.69,2.4,0,3.38-1.5,4.32-4.31l4.27,1.4c-1.41,4.84-4.37,7.44-8.74,7.44C809.86,108.92,806.06,104.45,806.06,94.72Zm13.11-2.13c-.11-4.89-1.25-7.49-3.74-7.49s-3.85,1.87-4.06,7.49Z"/><path class="cls-6" d="M827.39,80.94h5.41v3.23c1.41-1.72,4-3.64,6.81-3.64s4.48,1.3,5,3.74a9.54,9.54,0,0,1,7-3.74c3.59,0,5.35,1.92,5.35,7v21h-5.46V88.85c0-2.24-.46-3.33-2.23-3.33-1.51,0-3,1.14-4.42,2.6V108.5h-5.41V88.85c0-2.24-.47-3.33-2.19-3.33s-3.06,1.19-4.47,2.6V108.5h-5.41Z"/><path class="cls-6" d="M866.36,105.23v3.27H861V70.07h5.41V84a7,7,0,0,1,5.93-3.43c4.42,0,7.38,3.9,7.38,14.14s-3.28,14.14-7.7,14.14C869.37,108.81,867.76,107.41,866.36,105.23Zm7.8-10.51c0-6.91-1.3-9.31-3.8-9.31-1.61,0-3.22,1.51-4,2.55v13.63c.88,1.24,2.49,2.6,4,2.6C872.86,104.19,874.16,101.85,874.16,94.72Z"/><path class="cls-6" d="M881.89,94.72c0-9.88,4-14.19,9.41-14.19,6.35,0,8.79,6.08,8.79,14.24V96.7h-13c.05,4.89,1.46,7.69,4.37,7.69,2.39,0,3.38-1.5,4.32-4.31l4.26,1.4c-1.4,4.84-4.37,7.44-8.74,7.44C885.69,108.92,881.89,104.45,881.89,94.72ZM895,92.59c-.1-4.89-1.24-7.49-3.74-7.49-2.34,0-3.85,1.87-4.06,7.49Z"/><path class="cls-6" d="M903.22,80.94h5.41v4h.1a7.41,7.41,0,0,1,6.55-4.42h.63l-.16,5.2h-1a7.78,7.78,0,0,0-6.13,3.74v19h-5.41Z"/></g></svg>